#Comment line ignore any data following # character 
#Hierarchical Translation and Rotation (.htr) file 
[Header]	
#Header keywords are followed by a single value 
FileType HTR		#Single word string
DataType HTRS		#Translation followed by rotation and scale data
FileVersion 1		#integer
NumSegments 64		#integer
NumFrames 3		#integer
DataFrameRate 30		#integer, data frame rate in this file
EulerRotationOrder ZYX
CalibrationUnits mm
RotationUnits Degrees
GlobalAxisofGravity Y
BoneLengthAxis Y
ScaleFactor 1.00
[SegmentNames&Hierarchy]
#CHILD	PARENT
Pinger_Root GLOBAL
Pelvis Pinger_Root
L_Hip Pelvis
R_Hip Pelvis
Rear_Leg01 Pelvis
Spine1 Pelvis
L_Leg01 L_Hip
L_Leg02 L_Leg01
L_Leg03 L_Leg02
L_Foot L_Leg03
L_Toe1_01 L_Foot
L_Toe2_01 L_Foot
L_Toe3_01 L_Foot
planeAlignerLeft L_Foot
L_Toe1_02 L_Toe1_01
L_Toe1_03 L_Toe1_02
L_Toe2_02 L_Toe2_01
L_Toe2_03 L_Toe2_02
L_Toe3_02 L_Toe3_01
L_Toe3_03 L_Toe3_02
planeLockWeightLeft planeAlignerLeft
R_Leg01 R_Hip
R_Leg02 R_Leg01
R_Leg03 R_Leg02
R_Foot R_Leg03
planeAlignerRight R_Foot
R_Toe1_01 R_Foot
R_Toe2_01 R_Foot
R_Toe3_01 R_Foot
planeLockWeightRight planeAlignerRight
R_Toe1_02 R_Toe1_01
R_Toe1_03 R_Toe1_02
R_Toe2_02 R_Toe2_01
R_Toe2_03 R_Toe2_02
R_Toe3_02 R_Toe3_01
R_Toe3_03 R_Toe3_02
Rear_Leg02 Rear_Leg01
Rear_Leg03 Rear_Leg02
Rear_Leg04 Rear_Leg03
Rear_Foot Rear_Leg04
planeAlignerCenter Rear_Foot
Rear_Toe1_01 Rear_Foot
Rear_Toe2_01 Rear_Foot
Rear_Toe3_01 Rear_Foot
planeLockWeightCenter planeAlignerCenter
Rear_Toe1_02 Rear_Toe1_01
Rear_Toe1_03 Rear_Toe1_02
Rear_Toe2_02 Rear_Toe2_01
Rear_Toe2_03 Rear_Toe2_02
Rear_Toe3_02 Rear_Toe3_01
Rear_Toe3_03 Rear_Toe3_02
Back_Bone Spine1
Head Spine1
Motor_Bone Back_Bone
Ping_Mechanism Back_Bone
BN_LookIK Head
bottomMouth Head
L_Mouth01 Head
L_mouthFront Head
mouthGun Head
R_Mouth01 Head
R_mouthFront Head
TopMouth Head
weapon_bone Head
[BasePosition]
#SegmentName Tx, Ty, Tz, Rx, Ry, Rz, BoneLength
Pinger_Root 0.000000 0.000000 0.000000 -90.000000 0.000000 0.000000 10.000000 
Pelvis 0.000000 0.000000 0.000000 0.000000 0.000000 0.000000 10.000000 
L_Hip 0.000000 0.000000 0.000000 0.000000 0.000000 0.000000 10.000000 
R_Hip 0.000000 0.000000 0.000000 0.000000 0.000000 0.000000 10.000000 
Rear_Leg01 0.000000 0.000000 0.000000 0.000000 0.000000 0.000000 10.000000 
Spine1 0.000000 0.000000 0.000000 0.000000 0.000000 0.000000 10.000000 
L_Leg01 0.000000 0.000000 0.000000 0.000000 0.000000 0.000000 10.000000 
L_Leg02 0.000000 0.000000 0.000000 0.000000 0.000000 0.000000 10.000000 
L_Leg03 0.000000 0.000000 0.000000 0.000000 0.000000 0.000000 10.000000 
L_Foot 0.000000 0.000000 0.000000 0.000000 0.000000 0.000000 10.000000 
L_Toe1_01 0.000000 0.000000 0.000000 0.000000 0.000000 0.000000 10.000000 
L_Toe2_01 0.000000 0.000000 0.000000 0.000000 0.000000 0.000000 10.000000 
L_Toe3_01 0.000000 0.000000 0.000000 0.000000 0.000000 0.000000 10.000000 
planeAlignerLeft 0.000000 0.000000 0.000000 0.000000 0.000000 0.000000 10.000000 
L_Toe1_02 0.000000 0.000000 0.000000 0.000000 0.000000 0.000000 10.000000 
L_Toe1_03 0.000000 0.000000 0.000000 0.000000 0.000000 0.000000 10.000000 
L_Toe2_02 0.000000 0.000000 0.000000 0.000000 0.000000 0.000000 10.000000 
L_Toe2_03 0.000000 0.000000 0.000000 0.000000 0.000000 0.000000 10.000000 
L_Toe3_02 0.000000 0.000000 0.000000 0.000000 0.000000 0.000000 10.000000 
L_Toe3_03 0.000000 0.000000 0.000000 0.000000 0.000000 0.000000 10.000000 
planeLockWeightLeft 0.000000 0.000000 0.000000 0.000000 0.000000 0.000000 10.000000 
R_Leg01 0.000000 0.000000 0.000000 0.000000 0.000000 0.000000 10.000000 
R_Leg02 0.000000 0.000000 0.000000 0.000000 0.000000 0.000000 10.000000 
R_Leg03 0.000000 0.000000 0.000000 0.000000 0.000000 0.000000 10.000000 
R_Foot 0.000000 0.000000 0.000000 0.000000 0.000000 0.000000 10.000000 
planeAlignerRight 0.000000 0.000000 0.000000 0.000000 0.000000 0.000000 10.000000 
R_Toe1_01 0.000000 0.000000 0.000000 0.000000 0.000000 0.000000 10.000000 
R_Toe2_01 0.000000 0.000000 0.000000 0.000000 0.000000 0.000000 10.000000 
R_Toe3_01 0.000000 0.000000 0.000000 0.000000 0.000000 0.000000 10.000000 
planeLockWeightRight 0.000000 0.000000 0.000000 0.000000 0.000000 0.000000 10.000000 
R_Toe1_02 0.000000 0.000000 0.000000 0.000000 0.000000 0.000000 10.000000 
R_Toe1_03 0.000000 0.000000 0.000000 0.000000 0.000000 0.000000 10.000000 
R_Toe2_02 0.000000 0.000000 0.000000 0.000000 0.000000 0.000000 10.000000 
R_Toe2_03 0.000000 0.000000 0.000000 0.000000 0.000000 0.000000 10.000000 
R_Toe3_02 0.000000 0.000000 0.000000 0.000000 0.000000 0.000000 10.000000 
R_Toe3_03 0.000000 0.000000 0.000000 0.000000 0.000000 0.000000 10.000000 
Rear_Leg02 0.000000 0.000000 0.000000 0.000000 0.000000 0.000000 10.000000 
Rear_Leg03 0.000000 0.000000 0.000000 0.000000 0.000000 0.000000 10.000000 
Rear_Leg04 0.000000 0.000000 0.000000 0.000000 0.000000 0.000000 10.000000 
Rear_Foot 0.000000 0.000000 0.000000 0.000000 0.000000 0.000000 10.000000 
planeAlignerCenter 0.000000 0.000000 0.000000 0.000000 0.000000 0.000000 10.000000 
Rear_Toe1_01 0.000000 0.000000 0.000000 0.000000 0.000000 0.000000 10.000000 
Rear_Toe2_01 0.000000 0.000000 0.000000 0.000000 0.000000 0.000000 10.000000 
Rear_Toe3_01 0.000000 0.000000 0.000000 0.000000 0.000000 0.000000 10.000000 
planeLockWeightCenter 0.000000 0.000000 0.000000 0.000000 0.000000 0.000000 10.000000 
Rear_Toe1_02 0.000000 0.000000 0.000000 0.000000 0.000000 0.000000 10.000000 
Rear_Toe1_03 0.000000 0.000000 0.000000 0.000000 0.000000 0.000000 10.000000 
Rear_Toe2_02 0.000000 0.000000 0.000000 0.000000 0.000000 0.000000 10.000000 
Rear_Toe2_03 0.000000 0.000000 0.000000 0.000000 0.000000 0.000000 10.000000 
Rear_Toe3_02 0.000000 0.000000 0.000000 0.000000 0.000000 0.000000 10.000000 
Rear_Toe3_03 0.000000 0.000000 0.000000 0.000000 0.000000 0.000000 10.000000 
Back_Bone 0.000000 0.000000 0.000000 0.000000 0.000000 0.000000 10.000000 
Head 0.000000 0.000000 0.000000 0.000000 0.000000 0.000000 10.000000 
Motor_Bone 0.000000 0.000000 0.000000 0.000000 0.000000 0.000000 10.000000 
Ping_Mechanism 0.000000 0.000000 0.000000 0.000000 0.000000 0.000000 10.000000 
BN_LookIK 0.000000 0.000000 0.000000 0.000000 0.000000 0.000000 10.000000 
bottomMouth 0.000000 0.000000 0.000000 0.000000 0.000000 0.000000 10.000000 
L_Mouth01 0.000000 0.000000 0.000000 0.000000 0.000000 0.000000 10.000000 
L_mouthFront 0.000000 0.000000 0.000000 0.000000 0.000000 0.000000 10.000000 
mouthGun 0.000000 0.000000 0.000000 0.000000 0.000000 0.000000 10.000000 
R_Mouth01 0.000000 0.000000 0.000000 0.000000 0.000000 0.000000 10.000000 
R_mouthFront 0.000000 0.000000 0.000000 0.000000 0.000000 0.000000 10.000000 
TopMouth 0.000000 0.000000 0.000000 0.000000 0.000000 0.000000 10.000000 
weapon_bone 0.000000 0.000000 0.000000 0.000000 0.000000 0.000000 10.000000 
#Beginning of Data. Separated by tabs
#Fr	Tx	Ty	Tz	Rx	Ry	Rz	SF
[Pinger_Root]
47 0.000000 0.000000 0.000000 0.000053 0.000053 89.999939 0.000000
48 0.000000 0.000000 0.000000 0.000053 0.000053 89.999939 0.000000
49 0.000000 0.000000 0.000000 0.000053 0.000053 89.999924 0.000000
[Pelvis]
47 401.686127 486.054657 4379.773926 -106.995010 -86.022652 103.503365 4424.931641
48 398.486877 558.529114 4393.270996 -105.898468 -86.006294 101.807907 4446.523926
49 390.668854 624.367371 4406.215820 -104.813751 -85.987564 100.124268 4467.347656
[L_Hip]
47 5.766392 125.831482 872.656799 160.158691 -45.484913 122.312202 881.701050
48 5.766392 125.831482 872.656799 160.158691 -45.484905 122.312202 881.701050
49 5.766392 125.831482 872.656799 160.158691 -45.484905 122.312202 881.701050
[R_Hip]
47 5.765438 125.836372 -872.654907 38.087841 49.812687 125.703735 881.699829
48 5.765438 125.836372 -872.654907 38.087841 49.812687 125.703735 881.699829
49 5.765438 125.836372 -872.654907 38.087841 49.812687 125.703735 881.699829
[Rear_Leg01]
47 -192.298416 -925.602966 -0.001907 171.317062 -4.046708 -149.294876 945.367432
48 -192.298416 -925.602966 -0.001907 170.881851 -3.582123 -149.715790 945.367432
49 -192.298416 -925.602966 -0.001907 170.571579 -3.023297 -150.569885 945.367432
[Spine1]
47 290.604584 5.007505 0.000477 2.210035 1.567714 19.598528 290.647736
48 290.604584 5.007505 0.000477 2.973367 1.239328 19.539045 290.647736
49 290.604584 5.007505 0.000477 3.737033 0.911729 19.475178 290.647736
[L_Leg01]
47 761.932007 -0.002384 -0.069261 22.992762 -21.779285 -0.411488 761.932068
48 761.932007 -0.002384 -0.069261 23.877249 -19.983454 -2.953877 761.932068
49 761.932007 -0.002384 -0.069261 24.667442 -18.153111 -5.439144 761.932068
[L_Leg02]
47 1441.140503 -0.000954 -0.000715 0.567941 -0.083544 -121.191521 1441.140503
48 1441.140503 -0.000954 -0.000715 0.764495 -0.110237 -120.647469 1441.140503
49 1441.140503 -0.000954 -0.000715 0.960785 -0.138795 -120.103493 1441.140503
[L_Leg03]
47 1686.963989 -0.000715 -0.000954 0.003658 0.000566 109.126839 1686.963989
48 1686.963989 -0.000715 -0.000954 -0.001856 0.002712 110.838074 1686.963989
49 1686.963989 -0.000715 -0.000954 -0.007302 0.005021 112.548912 1686.963989
[L_Foot]
47 3041.570068 -30.715107 11.297464 -15.991261 12.896983 47.342812 3041.746094
48 3041.570068 -30.715107 11.297464 -16.162790 12.956256 47.790649 3041.746094
49 3041.570068 -30.715107 11.297464 -16.333874 13.016830 48.238415 3041.746094
[L_Toe1_01]
47 -188.216690 -224.732346 -21.137953 78.857872 -1.969652 -171.562210 293.899567
48 -188.216690 -224.732346 -21.137953 78.857872 -1.969653 -171.562210 293.899567
49 -188.216690 -224.732346 -21.137953 78.857872 -1.969653 -171.562210 293.899567
[L_Toe2_01]
47 200.746536 -219.926590 148.838394 -81.434929 -10.503304 -57.206535 332.896027
48 200.746536 -219.926590 148.838394 -81.434929 -10.503307 -57.206535 332.896027
49 200.746536 -219.926590 148.838394 -81.434929 -10.503304 -57.206535 332.896027
[L_Toe3_01]
47 188.832520 -219.859131 -191.078659 -93.610672 31.596872 -62.668003 347.140900
48 188.832520 -219.859131 -191.078659 -93.610680 31.596878 -62.668011 347.140900
49 188.832520 -219.859131 -191.078659 -93.610672 31.596872 -62.668003 347.140900
[planeAlignerLeft]
47 32.805786 -598.940002 -56.039364 -11.007723 -88.603951 -89.715721 602.449829
48 32.804565 -598.939819 -56.040115 -11.014513 -88.700195 -89.709496 602.449646
49 32.803345 -598.939575 -56.040874 -11.014513 -88.700195 -89.709496 602.449402
[L_Toe1_02]
47 413.761139 0.000477 0.000000 0.001384 -25.990374 0.001384 413.761139
48 413.761139 0.000477 0.000000 0.001384 -25.992632 0.001384 413.761139
49 413.761139 0.000477 0.000000 0.001384 -25.994884 0.001384 413.761139
[L_Toe1_03]
47 464.317322 0.000358 -0.000089 0.003878 54.771000 0.003878 464.317322
48 464.317322 0.000358 -0.000089 0.003874 54.735065 0.003874 464.317322
49 464.317322 0.000358 -0.000089 0.003871 54.699104 0.003871 464.317322
[L_Toe2_02]
47 342.235809 -0.000477 0.000238 0.001188 -72.005775 0.001188 342.235809
48 342.235809 -0.000477 0.000238 0.001188 -72.056938 0.001188 342.235809
49 342.235809 -0.000477 0.000238 0.001188 -72.108116 0.001188 342.235809
[L_Toe2_03]
47 420.210846 -0.000715 0.000000 0.024965 84.610962 0.024965 420.210846
48 420.210846 -0.000715 0.000000 0.025105 84.641052 0.025105 420.210846
49 420.210846 -0.000715 0.000000 0.025246 84.671120 0.025246 420.210846
[L_Toe3_02]
47 329.270111 0.000954 0.000000 0.001177 -80.897911 0.001177 329.270111
48 329.270111 0.000954 0.000000 0.001177 -80.882729 0.001177 329.270111
49 329.270111 0.000954 0.000000 0.001177 -80.867531 0.001177 329.270111
[L_Toe3_03]
47 439.137451 -0.001907 0.000954 -179.996780 76.730453 -179.993271 439.137451
48 439.137451 -0.001907 0.000954 -179.996780 76.725853 -179.993271 439.137451
49 439.137451 -0.001907 0.000954 -179.996796 76.721260 -179.993271 439.137451
[planeLockWeightLeft]
47 1000.000122 0.098044 0.076126 -0.011826 -0.004376 0.005620 1000.000122
48 1000.000122 0.098036 0.076127 -0.011826 -0.004376 0.005620 1000.000122
49 1000.000122 0.098027 0.076129 -0.011826 -0.004376 0.005620 1000.000122
[R_Leg01]
47 761.455627 -0.001907 -0.000358 120.863914 -16.543253 35.658844 761.455688
48 761.455627 -0.001907 -0.000358 122.281654 -15.249433 35.932636 761.455688
49 761.455627 -0.001907 -0.000358 123.697449 -13.962515 36.237713 761.455688
[R_Leg02]
47 1441.140625 0.000000 -0.000238 -1.390537 -0.247896 -125.677338 1441.140625
48 1441.140625 0.000000 -0.000238 -1.424311 -0.257388 -125.293442 1441.140625
49 1441.140625 0.000000 -0.000238 -1.458149 -0.266653 -124.909569 1441.140625
[R_Leg03]
47 1686.963989 0.000954 0.001431 0.080035 -0.041998 132.047318 1686.963989
48 1686.963989 0.000954 0.001431 0.080607 -0.043685 132.303162 1686.963989
49 1686.963989 0.000954 0.001431 0.081173 -0.045374 132.558975 1686.963989
[R_Foot]
47 3041.560059 -30.531288 -11.204481 -5.243571 -29.869421 55.264912 3041.734131
48 3041.560059 -30.531288 -11.204481 -5.644655 -27.710869 55.998360 3041.734131
49 3041.560059 -30.531288 -11.204481 -6.007572 -25.548073 56.701290 3041.734131
[planeAlignerRight]
47 -125.882881 -573.954834 -313.788208 -36.577168 -71.339035 -64.343941 666.133362
48 -125.960396 -573.958496 -313.749329 -36.577137 -71.339012 -64.343925 666.132874
49 -126.037910 -573.962219 -313.710449 -36.577137 -71.339012 -64.343925 666.132446
[R_Toe1_01]
47 -188.383347 -224.864899 21.052242 76.774155 -0.241774 -172.728302 294.101532
48 -188.383347 -224.864899 21.052242 76.773109 -0.259057 -172.728348 294.101532
49 -188.383347 -224.864899 21.052242 76.772041 -0.276338 -172.728378 294.101532
[R_Toe2_01]
47 200.637817 -220.002121 -148.787384 -91.571426 32.776810 -59.081341 332.857574
48 200.637817 -220.002121 -148.787384 -91.588593 32.786514 -59.091389 332.857574
49 200.637817 -220.002121 -148.787384 -91.605743 32.796227 -59.101456 332.857574
[R_Toe3_01]
47 188.606735 -220.092957 191.126343 -73.072540 -8.513449 -73.799477 347.192566
48 188.606735 -220.092957 191.126343 -73.087898 -8.507801 -73.795151 347.192566
49 188.606735 -220.092957 191.126343 -73.103233 -8.502137 -73.790794 347.192566
[planeLockWeightRight]
47 999.999268 0.000000 0.075841 -0.011823 -0.004379 -0.000027 999.999268
48 999.999268 0.000000 0.075832 -0.011823 -0.004379 -0.000027 999.999268
49 999.999268 0.000000 0.075823 -0.011823 -0.004379 -0.000027 999.999268
[R_Toe1_02]
47 413.762085 0.000477 -0.000119 0.001393 -24.766375 0.001393 413.762085
48 413.762085 0.000477 -0.000119 0.001393 -24.755686 0.001393 413.762085
49 413.762085 0.000477 -0.000119 0.001394 -24.744995 0.001394 413.762085
[R_Toe1_03]
47 464.317810 0.000000 0.001088 0.006625 69.593369 0.006625 464.317810
48 464.317810 0.000000 0.001088 0.006625 69.593369 0.006625 464.317810
49 464.317810 0.000000 0.001088 0.006625 69.593369 0.006625 464.317810
[R_Toe2_02]
47 342.234741 -0.000954 0.000238 0.001197 -67.180420 0.001197 342.234741
48 342.234741 -0.000954 0.000238 0.001197 -67.184525 0.001197 342.234741
49 342.234741 -0.000954 0.000238 0.001197 -67.188599 0.001197 342.234741
[R_Toe2_03]
47 420.210846 0.000715 -0.000268 0.008196 73.534927 0.008196 420.210846
48 420.210846 0.000715 -0.000268 0.008200 73.542633 0.008200 420.210846
49 420.210846 0.000715 -0.000268 0.008204 73.550354 0.008204 420.210846
[R_Toe3_02]
47 329.270355 -0.000477 -0.000954 0.001184 -74.634789 0.001184 329.270355
48 329.270355 -0.000477 -0.000954 0.001184 -74.596085 0.001184 329.270355
49 329.270355 -0.000477 -0.000954 0.001184 -74.557335 0.001184 329.270355
[R_Toe3_03]
47 439.137939 0.000238 0.001431 -0.011628 83.327888 -0.008125 439.137939
48 439.137939 0.000238 0.001431 -0.011624 83.325058 -0.008121 439.137939
49 439.137939 0.000238 0.001431 -0.011620 83.322350 -0.008117 439.137939
[Rear_Leg02]
47 1162.777710 -0.029802 0.005960 1.527663 -2.582710 -124.739731 1162.777710
48 1162.777710 -0.029802 0.005960 1.400847 -2.651719 -123.539108 1162.777710
49 1162.777710 -0.029802 0.005960 1.272619 -2.718051 -122.338387 1162.777710
[Rear_Leg03]
47 607.192505 -0.013351 -0.073195 0.010363 -0.005363 71.075630 607.192505
48 607.192505 -0.013351 -0.073195 0.010402 -0.005289 70.254349 607.192505
49 607.192505 -0.013351 -0.073195 0.010440 -0.005214 69.433006 607.192505
[Rear_Leg04]
47 995.874512 -0.020504 -0.011921 -0.041084 -0.016767 72.958755 995.874573
48 995.874512 -0.020504 -0.011921 -0.040770 -0.017536 70.813637 995.874573
49 995.874512 -0.020504 -0.011921 -0.040427 -0.018293 68.668510 995.874573
[Rear_Foot]
47 3096.176270 -0.067472 -0.041425 -162.289383 80.981209 19.972237 3096.176270
48 3096.176270 -0.067472 -0.041425 -162.027954 81.198860 21.439520 3096.176270
49 3096.176270 -0.067472 -0.041425 -161.722672 81.415375 22.950424 3096.176270
[planeAlignerCenter]
47 0.918933 -16.082050 -776.955139 12.240772 -0.001473 179.998184 777.122070
48 0.919085 -16.082001 -776.956665 12.240772 -0.001473 179.998184 777.123596
49 0.919236 -16.081949 -776.958252 12.240772 -0.001473 179.998184 777.125183
[Rear_Toe1_01]
47 0.653352 83.966492 -371.173737 0.291104 41.914120 90.410164 380.553192
48 0.653352 83.966492 -371.173737 0.290803 41.914127 90.410469 380.553192
49 0.653352 83.966492 -371.173737 0.290502 41.914139 90.410782 380.553192
[Rear_Toe2_01]
47 178.200760 -294.826019 -362.060547 -7.196267 34.406261 -66.271294 499.765686
48 178.200760 -294.826019 -362.060547 -7.196267 34.406261 -66.271294 499.765686
49 178.200760 -294.826019 -362.060547 -7.196267 34.406261 -66.271294 499.765686
[Rear_Toe3_01]
47 -153.359680 -308.780914 -362.060852 3.289417 33.518013 -112.540977 499.952881
48 -153.359680 -308.780914 -362.060852 3.289418 33.518005 -112.540970 499.952881
49 -153.359680 -308.780914 -362.060852 3.289418 33.518005 -112.540970 499.952881
[planeLockWeightCenter]
47 1000.000244 0.000305 0.076411 -0.011814 -0.004373 -0.000015 1000.000244
48 1000.000244 0.000305 0.076408 -0.011814 -0.004373 -0.000015 1000.000244
49 1000.000244 0.000305 0.076406 -0.011814 -0.004373 -0.000015 1000.000244
[Rear_Toe1_02]
47 379.707825 0.194073 0.000477 -0.000238 -31.623114 0.006932 379.707855
48 379.707825 0.194073 0.000477 -0.000238 -31.628479 0.006932 379.707855
49 379.707825 0.194073 0.000477 -0.000239 -31.633844 0.006932 379.707855
[Rear_Toe1_03]
47 500.129700 0.165701 0.000119 -0.000104 51.891479 0.007294 500.129761
48 500.129700 0.165701 0.000119 -0.000104 51.892582 0.007294 500.129761
49 500.129700 0.165701 0.000119 -0.000104 51.893688 0.007294 500.129761
[Rear_Toe2_02]
47 340.494507 0.000238 -0.000954 0.001192 -69.854523 0.001192 340.494507
48 340.494507 0.000238 -0.000954 0.001192 -69.854523 0.001192 340.494507
49 340.494507 0.000238 -0.000954 0.001192 -69.854523 0.001192 340.494507
[Rear_Toe2_03]
47 433.103577 0.000000 0.000238 0.006696 69.810326 0.006696 433.103546
48 433.103577 0.000000 0.000238 0.006696 69.810326 0.006696 433.103546
49 433.103577 0.000000 0.000238 0.006696 69.810341 0.006696 433.103546
[Rear_Toe3_02]
47 340.494141 -0.000358 -0.000477 0.008288 -67.274704 -0.009460 340.494171
48 340.494141 -0.000358 -0.000477 0.008288 -67.274704 -0.009460 340.494171
49 340.494141 -0.000358 -0.000477 0.008288 -67.274704 -0.009460 340.494171
[Rear_Toe3_03]
47 433.103577 0.001431 -0.000238 -0.000978 66.012085 -0.004553 433.103546
48 433.103577 0.001431 -0.000238 -0.000976 65.994408 -0.004551 433.103546
49 433.103577 0.001431 -0.000238 -0.000974 65.976715 -0.004549 433.103546
[Back_Bone]
47 1312.175781 -701.934692 0.000954 0.000023 -0.000007 -85.606667 1488.125488
48 1312.175781 -701.934692 0.000954 0.000023 -0.000007 -85.606667 1488.125488
49 1312.175781 -701.934692 0.000954 0.000023 -0.000007 -85.606667 1488.125488
[Head]
47 1406.159424 809.709290 0.001431 0.000625 -1.475624 7.768028 1622.625488
48 1406.159424 809.709290 0.001431 0.000625 -1.475623 7.768026 1622.625488
49 1406.159424 809.709290 0.001431 0.000625 -1.475623 7.768025 1622.625488
[Motor_Bone]
47 1158.364380 -417.834747 0.000477 -0.096897 4.155264 -105.911880 1231.419434
48 1158.364380 -417.834747 0.000477 -0.096529 2.484650 -105.913010 1231.419434
49 1158.364380 -417.834747 0.000477 -0.096129 0.814036 -105.914169 1231.419434
[Ping_Mechanism]
47 1233.566040 -441.743866 -4.621027 0.000103 -0.000053 82.120995 1310.284058
48 1233.584106 -441.746399 -4.190819 0.000103 -0.000053 82.120995 1310.300537
49 1233.602295 -441.748962 -3.760613 0.000103 -0.000053 82.120995 1310.317139
[BN_LookIK]
47 193.241119 1380.371704 -0.002861 0.000000 89.965736 -31.038179 1393.832153
48 193.241119 1380.371704 -0.002861 0.000000 89.965736 -31.038179 1393.832153
49 193.241119 1380.371704 -0.002861 0.000000 89.965736 -31.038179 1393.832153
[bottomMouth]
47 -435.092926 615.759399 -0.000954 -0.000022 0.000016 73.527184 753.966492
48 -435.092926 615.759399 -0.000954 -0.000022 0.000016 73.527184 753.966492
49 -435.092926 615.759399 -0.000954 -0.000022 0.000016 73.527184 753.966492
[L_Mouth01]
47 554.440979 7.658243 838.222046 150.204178 23.759130 109.605339 1005.027161
48 554.440979 7.658243 838.222046 150.204178 23.759130 109.605339 1005.027161
49 554.440979 7.658243 838.222046 150.204178 23.759130 109.605339 1005.027161
[L_mouthFront]
47 551.629089 934.514771 339.150421 0.000081 2.804060 79.119301 1136.941284
48 551.629089 934.514771 339.150421 0.000081 2.804060 79.119301 1136.941284
49 551.629089 934.514771 339.150421 0.000081 2.804060 79.119301 1136.941284
[mouthGun]
47 55.332661 1627.420898 0.000000 0.000023 0.000009 -11.038128 1628.361328
48 55.332661 1627.420898 0.000000 0.000023 0.000009 -11.038128 1628.361328
49 55.332661 1627.420898 0.000000 0.000023 0.000009 -11.038128 1628.361328
[R_Mouth01]
47 554.442383 7.659197 -838.223938 29.795891 -23.759109 109.605331 1005.029541
48 554.442383 7.659197 -838.223938 29.795891 -23.759109 109.605331 1005.029541
49 554.442383 7.659197 -838.223938 29.795891 -23.759109 109.605331 1005.029541
[R_mouthFront]
47 551.629089 934.514282 -339.151367 0.000029 -2.803930 79.119133 1136.941162
48 551.629089 934.514282 -339.151367 0.000029 -2.803930 79.119133 1136.941162
49 551.629089 934.514282 -339.151367 0.000029 -2.803930 79.119133 1136.941162
[TopMouth]
47 461.269867 -56.106091 -0.008583 -0.000059 -0.000268 92.025169 464.669525
48 461.269867 -56.106091 -0.008583 -0.000059 -0.000268 92.025169 464.669525
49 461.269867 -56.106091 -0.008583 -0.000059 -0.000268 92.025169 464.669525
[weapon_bone]
47 -987.239868 1448.372803 0.001431 0.000000 89.965736 -31.038221 1752.833740
48 -987.239868 1448.372803 0.001431 0.000000 89.965736 -31.038221 1752.833740
49 -987.239868 1448.372803 0.001431 0.000000 89.965736 -31.038221 1752.833740
